<?xml version="1.0" standalone="no"?>
<!DOCTYPE svg PUBLIC "-//W3C//DTD SVG 20010904//EN"
 "http://www.w3.org/TR/2001/REC-SVG-20010904/DTD/svg10.dtd">
<svg version="1.0" xmlns="http://www.w3.org/2000/svg"
 width="700.000000pt" height="700.000000pt" viewBox="0 0 700.000000 700.000000"
 preserveAspectRatio="xMidYMid meet">
<metadata>
Created by potrace 1.14, written by Peter Selinger 2001-2017
</metadata>
<g transform="translate(0.000000,700.000000) scale(0.100000,-0.100000)"
fill="#000000" stroke="none">
<path d="M1177 5828 c-9 -4 -12 -79 -10 -280 0 -150 2 -279 2 -285 1 -10 474
-13 2331 -13 1282 0 2330 3 2331 8 4 31 3 565 -1 570 -7 9 -4638 9 -4653 0z"/>
<path d="M1166 4951 c-2 -3 -6 -22 -10 -41 -3 -19 -8 -46 -11 -60 -3 -14 -7
-36 -10 -50 -10 -52 -14 -72 -19 -88 -3 -9 -7 -33 -10 -52 -3 -19 -14 -78 -25
-130 -11 -52 -22 -108 -25 -125 -3 -16 -8 -41 -11 -55 -3 -14 -12 -59 -20
-100 -8 -41 -17 -86 -19 -100 -8 -36 -35 -171 -41 -198 -2 -13 -6 -31 -9 -40
-3 -9 -7 -33 -10 -52 -3 -19 -14 -78 -25 -130 -11 -52 -22 -108 -25 -125 -3
-16 -9 -41 -12 -55 -11 -44 -10 -621 1 -628 5 -3 68 -7 140 -8 71 0 133 -2
136 -3 3 0 6 -388 5 -862 -1 -473 2 -866 6 -872 9 -15 2908 -17 2909 -2 1 6 2
399 3 875 l1 865 582 1 583 0 2 -875 3 -875 280 -1 c154 0 285 3 290 6 7 5 10
307 9 876 l0 869 130 -1 c72 -1 138 2 146 6 13 6 15 48 15 306 -1 164 -4 307
-8 318 -3 11 -9 36 -12 55 -3 19 -8 42 -10 50 -2 8 -7 29 -10 45 -5 34 -10 58
-25 130 -14 66 -19 94 -25 129 -3 16 -24 117 -46 225 -22 108 -42 210 -45 226
-2 17 -7 37 -9 45 -2 8 -7 29 -10 45 -6 35 -11 60 -25 131 -6 28 -13 61 -15
75 -7 35 -13 67 -25 124 -6 28 -12 60 -15 73 -2 13 -7 32 -10 41 -5 18 -107
18 -2335 18 -1282 1 -2332 -2 -2334 -6z m2334 -2618 l0 -583 -875 0 -875 0 0
583 0 583 875 0 875 0 0 -583z"/>
</g>
</svg>
